<svg width="512" height="512" viewBox="0 0 512 512" fill="none" xmlns="http://www.w3.org/2000/svg">
<g clip-path="url(#clip0_425_128)">
<path d="M189.613 395.958C189.613 395.958 170.047 407.336 203.537 411.186C244.109 415.815 264.845 415.151 309.556 406.689C309.556 406.689 321.311 414.06 337.728 420.443C237.498 463.4 110.888 417.955 189.613 395.958Z" fill="#5382A1"/>
<path d="M177.368 339.902C177.368 339.902 155.423 356.146 188.938 359.613C232.278 364.084 266.505 364.45 325.731 353.046C325.731 353.046 333.923 361.35 346.803 365.892C225.62 401.328 90.6429 368.686 177.368 339.902Z" fill="#5382A1"/>
<path d="M280.617 244.813C305.313 273.247 274.128 298.833 274.128 298.833C274.128 298.833 336.837 266.461 308.038 225.924C281.14 188.12 260.513 169.336 372.179 104.574C372.179 104.574 196.9 148.351 280.617 244.813Z" fill="#E76F00"/>
<path d="M413.179 437.42C413.179 437.42 427.658 449.35 397.233 458.58C339.379 476.106 156.439 481.398 105.619 459.278C87.3501 451.331 121.609 440.302 132.385 437.987C143.624 435.55 150.046 436.004 150.046 436.004C129.73 421.692 18.7294 464.107 93.6636 476.254C298.02 509.394 466.186 461.33 413.179 437.42Z" fill="#5382A1"/>
<path d="M199.025 281.822C199.025 281.822 105.97 303.924 166.072 311.95C191.449 315.347 242.037 314.579 289.159 310.631C327.669 307.382 366.338 300.475 366.338 300.475C366.338 300.475 352.759 306.29 342.935 312.999C248.439 337.851 65.8903 326.289 118.444 300.868C162.888 279.385 199.025 281.822 199.025 281.822Z" fill="#5382A1"/>
<path d="M365.953 375.129C462.012 325.213 417.598 277.244 386.598 283.707C379 285.288 375.612 286.658 375.612 286.658C375.612 286.658 378.432 282.24 383.82 280.327C445.149 258.766 492.315 343.919 364.022 377.645C364.022 377.646 365.509 376.317 365.953 375.129Z" fill="#5382A1"/>
<path d="M308.04 0C308.04 0 361.239 53.2171 257.583 135.05C174.461 200.694 238.629 238.122 257.548 280.886C209.029 237.11 173.422 198.573 197.31 162.707C232.372 110.058 329.505 84.5322 308.04 0Z" fill="#E76F00"/>
<path d="M208.462 510.391C300.667 516.293 442.258 507.116 445.611 463.487C445.611 463.487 439.165 480.027 369.409 493.162C290.71 507.972 193.646 506.243 136.076 496.751C136.078 496.75 147.861 506.505 208.462 510.391Z" fill="#5382A1"/>
</g>
<defs>
<clipPath id="clip0_425_128">
<rect width="512" height="512" fill="white"/>
</clipPath>
</defs>
</svg>
