<svg width="288" height="512" viewBox="0 0 288 512" fill="none" xmlns="http://www.w3.org/2000/svg">
<path d="M141.936 510.6L159.039 484.937C162.885 480.202 167.05 476.01 171.957 472.106C186.343 460.758 199.751 448.646 212.092 435.853C241.072 405.455 260.619 371.698 274.578 335.188C282.95 312.886 287.496 290.008 287.836 266.873C289.238 197.71 259.557 138.323 199.715 88.9662C189.981 81.1393 179.465 73.9587 168.272 67.4957C162.344 67.4957 159.54 71.1275 157.097 74.4712C152.647 80.6717 149.686 87.4812 148.365 94.5498C146.262 102.917 144.88 111.285 145.561 119.924V123.828C145.08 124.66 139.853 508.632 141.936 510.6V510.6Z" fill="#599636"/>
<path d="M141.936 511.45C141.235 512.57 140.534 511.722 139.833 511.178C140.174 505.578 137.73 500.586 133.905 495.819C129.699 491.083 124.132 487.451 118.544 483.548C87.5015 462.077 63.068 436.143 43.5012 407.137C17.4655 368.1 4.04708 326.263 0.241866 282.218C-1.50052 266.331 6.53049 210.271 12.7991 194.096C29.9025 151.155 60.6247 115.174 100.419 83.9443C110.193 76.4248 120.647 69.4493 131.462 62.7458C134.606 62.7458 134.947 64.9856 135.668 66.6495C137.046 70.2098 138.097 73.8459 138.812 77.5287L145.822 119.35L141.936 511.45Z" fill="#6CAC48"/>
<path d="M159.036 50.5077C159.737 56.9072 163.583 62.2188 167.768 67.5144C163.563 68.9063 160.438 71.6741 157.995 74.7618C155.888 77.6854 154.144 80.7665 152.788 83.9611C147.901 95.6722 146.86 107.959 145.458 119.926V127.174C143.715 126.054 143.355 116.583 143.355 115.175C142.336 102.527 140.235 89.9488 137.066 77.5296C136.025 72.506 135.324 67.4984 131.458 63.0347C131.458 62.4748 131.459 61.9148 131.799 61.0829C138.088 46.3 139.81 31.2452 140.871 15.9024V10.3028C140.871 3.61531 140.531 5.02321 147.48 2.78338C150.284 1.95145 153.409 1.66347 156.212 -0.000398339C158.315 -0.000398339 158.656 1.39149 158.656 2.5114L157.614 11.7107V37.3727C157.274 41.8524 158.315 46.3 159.016 50.4917L159.036 50.5077Z" fill="#C2BFBF"/>
</svg>
