<svg width="512" height="512" viewBox="0 0 512 512" fill="none" xmlns="http://www.w3.org/2000/svg">
<path fill-rule="evenodd" clip-rule="evenodd" d="M253.222 412.519C251.486 412.519 249.866 412.056 248.361 411.246L232.969 402.103C230.654 400.83 231.811 400.367 232.506 400.135C235.631 399.094 236.209 398.862 239.45 397.011C239.797 396.779 240.26 396.895 240.607 397.126L252.412 404.186C252.875 404.417 253.453 404.417 253.801 404.186L299.978 377.452C300.441 377.22 300.672 376.757 300.672 376.179V322.826C300.672 322.247 300.441 321.784 299.978 321.553L253.801 294.935C253.338 294.703 252.759 294.703 252.412 294.935L206.235 321.553C205.772 321.784 205.54 322.363 205.54 322.826V376.179C205.54 376.642 205.772 377.22 206.235 377.452L218.849 384.743C225.678 388.215 229.96 384.164 229.96 380.114V327.455C229.96 326.761 230.538 326.067 231.349 326.067H237.251C237.945 326.067 238.64 326.645 238.64 327.455V380.114C238.64 389.256 233.663 394.58 224.983 394.58C222.321 394.58 220.238 394.58 214.336 391.687L202.184 384.743C199.175 383.007 197.323 379.766 197.323 376.294V322.942C197.323 319.47 199.175 316.229 202.184 314.493L248.361 287.759C251.255 286.139 255.189 286.139 258.083 287.759L304.26 314.493C307.269 316.229 309.121 319.47 309.121 322.942V376.294C309.121 379.766 307.269 383.007 304.26 384.743L258.083 411.477C256.578 412.171 254.842 412.519 253.222 412.519ZM267.457 375.831C247.204 375.831 243.038 366.573 243.038 358.703C243.038 358.009 243.616 357.314 244.426 357.314H250.444C251.139 357.314 251.717 357.777 251.717 358.472C252.643 364.605 255.305 367.614 267.573 367.614C277.294 367.614 281.461 365.416 281.461 360.208C281.461 357.199 280.303 355 265.142 353.495C252.528 352.222 244.658 349.444 244.658 339.376C244.658 330.001 252.528 324.446 265.721 324.446C280.535 324.446 287.826 329.539 288.752 340.649C288.752 340.996 288.636 341.343 288.405 341.69C288.173 341.922 287.826 342.153 287.479 342.153H281.461C280.882 342.153 280.303 341.69 280.188 341.112C278.799 334.746 275.211 332.663 265.721 332.663C255.074 332.663 253.801 336.367 253.801 339.144C253.801 342.501 255.305 343.542 269.656 345.394C283.891 347.246 290.604 349.907 290.604 359.86C290.488 370.045 282.155 375.831 267.457 375.831Z" fill="#539E43"/>
<path fill-rule="evenodd" clip-rule="evenodd" d="M109.946 203.854C109.946 201.771 108.788 199.803 106.937 198.762L57.8662 170.523C57.0561 170.06 56.1302 169.829 55.2043 169.713H54.7414C53.8156 169.713 52.8897 170.06 52.0796 170.523L3.00904 198.762C1.15732 199.803 0 201.771 0 203.854L0.115732 279.774C0.115732 280.816 0.694394 281.858 1.62025 282.321C2.54611 282.899 3.70344 282.899 4.51356 282.321L33.6781 265.655C35.5298 264.613 36.6872 262.646 36.6872 260.563V225.033C36.6872 222.95 37.8445 220.982 39.6962 219.941L52.0796 212.765C53.0054 212.187 54.047 211.955 55.0886 211.955C56.1302 211.955 57.1718 212.187 57.9819 212.765L70.3653 219.941C72.217 220.982 73.3743 222.95 73.3743 225.033V260.563C73.3743 262.646 74.5317 264.613 76.3834 265.655L105.548 282.321C106.474 282.899 107.631 282.899 108.557 282.321C109.483 281.858 110.062 280.816 110.062 279.774L109.946 203.854Z" fill="#333333"/>
<path fill-rule="evenodd" clip-rule="evenodd" d="M345.808 99.3472C344.882 98.8843 343.725 98.8843 342.915 99.3472C341.989 99.9259 341.41 100.852 341.41 101.893V177.119C341.41 177.814 341.063 178.508 340.368 178.971C339.674 179.318 338.98 179.318 338.285 178.971L326.018 171.911C324.166 170.87 321.967 170.87 320.115 171.911L271.045 200.266C269.193 201.307 268.036 203.275 268.036 205.358V261.951C268.036 264.034 269.193 266.002 271.045 267.043L320.115 295.398C321.967 296.439 324.166 296.439 326.018 295.398L375.088 267.043C376.94 266.002 378.097 264.034 378.097 261.951V120.873C378.097 118.675 376.94 116.707 375.088 115.665L345.808 99.3472ZM341.294 243.318C341.294 243.897 341.062 244.36 340.599 244.591L323.818 254.313C323.355 254.544 322.777 254.544 322.314 254.313L305.533 244.591C305.07 244.36 304.838 243.781 304.838 243.318V223.875C304.838 223.297 305.07 222.834 305.533 222.602L322.314 212.881C322.777 212.649 323.355 212.649 323.818 212.881L340.599 222.602C341.062 222.834 341.294 223.412 341.294 223.875V243.318Z" fill="#333333"/>
<path fill-rule="evenodd" clip-rule="evenodd" d="M509.107 223.412C510.958 222.37 512 220.403 512 218.32V204.548C512 202.464 510.843 200.497 509.107 199.455L460.383 171.217C458.532 170.175 456.333 170.175 454.481 171.217L405.41 199.571C403.559 200.613 402.401 202.58 402.401 204.663V261.257C402.401 263.34 403.559 265.307 405.41 266.349L454.134 294.125C455.985 295.166 458.184 295.166 459.92 294.125L489.432 277.691C490.358 277.228 490.937 276.186 490.937 275.144C490.937 274.103 490.358 273.061 489.432 272.598L440.13 244.244C439.204 243.665 438.626 242.739 438.626 241.698V223.991C438.626 222.949 439.204 221.908 440.13 221.445L455.523 212.649C456.448 212.07 457.606 212.07 458.532 212.649L473.924 221.445C474.85 222.023 475.429 222.949 475.429 223.991V237.879C475.429 238.92 476.007 239.962 476.933 240.425C477.859 241.003 479.016 241.003 479.942 240.425L509.107 223.412Z" fill="#333333"/>
<path fill-rule="evenodd" clip-rule="evenodd" d="M456.68 220.75C457.027 220.518 457.49 220.518 457.837 220.75L467.211 226.189C467.558 226.421 467.79 226.768 467.79 227.231V238.11C467.79 238.573 467.558 238.92 467.211 239.151L457.837 244.591C457.49 244.822 457.027 244.822 456.68 244.591L447.305 239.151C446.958 238.92 446.727 238.573 446.727 238.11V227.231C446.727 226.768 446.958 226.421 447.305 226.189L456.68 220.75Z" fill="#539E43"/>
<path fill-rule="evenodd" clip-rule="evenodd" d="M192 171.448C190.148 170.407 187.949 170.407 186.098 171.448L137.374 199.571C135.523 200.613 134.481 202.58 134.481 204.663V261.025C134.481 263.108 135.638 265.076 137.374 266.117L186.098 294.24C187.949 295.282 190.148 295.282 192 294.24L240.723 266.117C242.575 265.076 243.617 263.108 243.617 261.025V204.663C243.617 202.58 242.459 200.613 240.723 199.571L192 171.448Z" fill="white"/>
<path fill-rule="evenodd" clip-rule="evenodd" d="M192 171.448C190.148 170.407 187.949 170.407 186.098 171.448L137.374 199.571C135.523 200.613 134.481 202.58 134.481 204.663V261.025C134.481 263.108 135.638 265.076 137.374 266.117L186.098 294.24C187.949 295.282 190.148 295.282 192 294.24L240.723 266.117C242.575 265.076 243.617 263.108 243.617 261.025V204.663C243.617 202.58 242.459 200.613 240.723 199.571L192 171.448Z" fill="url(#paint0_linear_425_374)"/>
<mask id="mask0_425_374" style="mask-type:luminance" maskUnits="userSpaceOnUse" x="134" y="170" width="110" height="126">
<path fill-rule="evenodd" clip-rule="evenodd" d="M192 171.448C190.148 170.407 187.949 170.407 186.098 171.448L137.374 199.571C135.523 200.613 134.481 202.58 134.481 204.663V261.025C134.481 263.108 135.638 265.076 137.374 266.117L186.098 294.24C187.949 295.282 190.148 295.282 192 294.24L240.723 266.117C242.575 265.076 243.617 263.108 243.617 261.025V204.663C243.617 202.58 242.459 200.613 240.723 199.571L192 171.448Z" fill="white"/>
</mask>
<g mask="url(#mask0_425_374)">
<path fill-rule="evenodd" clip-rule="evenodd" d="M240.84 199.571L191.885 171.448C191.422 171.216 190.844 170.985 190.381 170.869L135.523 264.844C135.986 265.423 136.565 265.885 137.144 266.233L186.098 294.356C187.487 295.166 189.108 295.397 190.612 294.934L242.113 200.728C241.766 200.265 241.303 199.918 240.84 199.571Z" fill="url(#paint1_linear_425_374)"/>
</g>
<mask id="mask1_425_374" style="mask-type:luminance" maskUnits="userSpaceOnUse" x="134" y="170" width="110" height="126">
<path fill-rule="evenodd" clip-rule="evenodd" d="M192 171.448C190.148 170.407 187.949 170.407 186.098 171.448L137.374 199.571C135.523 200.613 134.481 202.58 134.481 204.663V261.025C134.481 263.108 135.638 265.076 137.374 266.117L186.098 294.24C187.949 295.282 190.148 295.282 192 294.24L240.723 266.117C242.575 265.076 243.617 263.108 243.617 261.025V204.663C243.617 202.58 242.459 200.613 240.723 199.571L192 171.448Z" fill="white"/>
</mask>
<g mask="url(#mask1_425_374)">
<path fill-rule="evenodd" clip-rule="evenodd" d="M240.955 266.117C242.344 265.307 243.385 263.918 243.848 262.414L190.148 170.754C188.76 170.522 187.255 170.638 185.982 171.448L137.375 199.455L189.801 295.05C190.496 294.935 191.306 294.703 192 294.356L240.955 266.117Z" fill="url(#paint2_linear_425_374)"/>
<path fill-rule="evenodd" clip-rule="evenodd" d="M240.955 266.117L192.116 294.24C191.422 294.587 190.727 294.819 189.917 294.934L190.843 296.67L245.006 265.307V264.612L243.617 262.298C243.385 263.918 242.344 265.307 240.955 266.117Z" fill="url(#paint3_linear_425_374)"/>
<path fill-rule="evenodd" clip-rule="evenodd" d="M240.955 266.117L192.116 294.24C191.422 294.587 190.727 294.819 189.917 294.934L190.843 296.67L245.006 265.307V264.612L243.617 262.298C243.385 263.918 242.344 265.307 240.955 266.117Z" fill="url(#paint4_linear_425_374)"/>
</g>
<defs>
<linearGradient id="paint0_linear_425_374" x1="178.525" y1="176.605" x2="126.662" y2="239.369" gradientUnits="userSpaceOnUse">
<stop stop-color="#41873F"/>
<stop offset="0.3288" stop-color="#418B3D"/>
<stop offset="0.6352" stop-color="#419637"/>
<stop offset="0.9319" stop-color="#3FA92D"/>
<stop offset="1" stop-color="#3FAE2A"/>
</linearGradient>
<linearGradient id="paint1_linear_425_374" x1="210.446" y1="309.819" x2="340.18" y2="257.99" gradientUnits="userSpaceOnUse">
<stop offset="0.1376" stop-color="#41873F"/>
<stop offset="0.4032" stop-color="#54A044"/>
<stop offset="0.7136" stop-color="#66B848"/>
<stop offset="0.9081" stop-color="#6CC04A"/>
</linearGradient>
<linearGradient id="paint2_linear_425_374" x1="132.702" y1="298.709" x2="245.445" y2="298.709" gradientUnits="userSpaceOnUse">
<stop offset="0.0919165" stop-color="#6CC04A"/>
<stop offset="0.2864" stop-color="#66B848"/>
<stop offset="0.5968" stop-color="#54A044"/>
<stop offset="0.8624" stop-color="#41873F"/>
</linearGradient>
<linearGradient id="paint3_linear_425_374" x1="132.702" y1="314.752" x2="245.445" y2="314.752" gradientUnits="userSpaceOnUse">
<stop offset="0.0919165" stop-color="#6CC04A"/>
<stop offset="0.2864" stop-color="#66B848"/>
<stop offset="0.5968" stop-color="#54A044"/>
<stop offset="0.8624" stop-color="#41873F"/>
</linearGradient>
<linearGradient id="paint4_linear_425_374" x1="121.082" y1="181.303" x2="110.452" y2="324.371" gradientUnits="userSpaceOnUse">
<stop stop-color="#41873F"/>
<stop offset="0.3288" stop-color="#418B3D"/>
<stop offset="0.6352" stop-color="#419637"/>
<stop offset="0.9319" stop-color="#3FA92D"/>
<stop offset="1" stop-color="#3FAE2A"/>
</linearGradient>
</defs>
</svg>
