<svg width="512" height="512" viewBox="0 0 512 512" fill="none" xmlns="http://www.w3.org/2000/svg">
<path d="M510.306 75.7816L269.794 505.317C264.828 514.186 252.07 514.238 247.03 505.413L1.74936 75.8215C-3.74265 66.2056 4.49136 54.5563 15.4034 56.5058L256.174 99.4857C257.71 99.7599 259.283 99.7572 260.818 99.4777L496.552 56.5657C507.428 54.5862 515.7 66.1457 510.306 75.7816V75.7816Z" fill="url(#paint0_linear_426_114)"/>
<path d="M370.865 0.126058L192.881 34.9583C191.459 35.2366 190.17 35.979 189.216 37.0688C188.262 38.1586 187.698 39.534 187.613 40.9788L176.665 225.659C176.605 226.672 176.782 227.685 177.182 228.617C177.582 229.55 178.194 230.377 178.97 231.031C179.746 231.686 180.664 232.152 181.652 232.39C182.639 232.629 183.669 232.635 184.659 232.406L234.213 220.985C238.849 219.916 243.039 223.995 242.085 228.651L227.363 300.655C226.373 305.501 230.927 309.643 235.665 308.205L266.273 298.919C271.017 297.481 275.577 301.636 274.573 306.485L251.177 419.585C249.713 426.661 259.135 430.518 263.063 424.453L265.689 420.402L410.721 131.325C413.151 126.485 408.961 120.966 403.641 121.993L352.631 131.825C347.839 132.748 343.761 128.289 345.113 123.607L378.405 8.34174C379.759 3.64764 375.665 -0.812763 370.867 0.126058H370.865Z" fill="url(#paint1_linear_426_114)"/>
<defs>
<linearGradient id="paint0_linear_426_114" x1="-4.23936" y1="91.161" x2="254.728" y2="443.304" gradientUnits="userSpaceOnUse">
<stop stop-color="#41D1FF"/>
<stop offset="1" stop-color="#BD34FE"/>
</linearGradient>
<linearGradient id="paint1_linear_426_114" x1="278.49" y1="9.58371" x2="331.72" y2="375.192" gradientUnits="userSpaceOnUse">
<stop stop-color="#FFEA83"/>
<stop offset="0.083" stop-color="#FFDD35"/>
<stop offset="1" stop-color="#FFA800"/>
</linearGradient>
</defs>
</svg>
