<svg width="512" height="512" viewBox="0 0 512 512" fill="none" xmlns="http://www.w3.org/2000/svg">
<path fill-rule="evenodd" clip-rule="evenodd" d="M478.422 153C478.418 144.592 476.622 137.163 472.99 130.788C469.422 124.517 464.076 119.264 456.91 115.108C397.741 80.9583 338.516 46.9132 279.368 12.7292C263.422 3.51563 247.96 3.8507 232.132 13.1979C208.582 27.1007 90.6719 94.7188 55.5365 115.089C41.0677 123.474 34.026 136.306 34.0226 152.984C34 221.661 34.0226 290.335 34 359.014C34.0035 367.236 35.724 374.521 39.1962 380.802C42.7656 387.26 48.184 392.66 55.5174 396.91C90.6545 417.28 208.58 484.892 232.125 498.799C247.96 508.151 263.422 508.484 279.373 499.267C338.523 465.082 397.752 431.038 456.929 396.889C464.262 392.641 469.681 387.238 473.25 380.785C476.717 374.503 478.441 367.219 478.444 358.995C478.444 358.995 478.444 221.679 478.422 153Z" fill="#A9B9CB"/>
<path fill-rule="evenodd" clip-rule="evenodd" d="M278.967 13.1773C263.047 3.98633 247.611 4.3214 231.809 13.6443C208.297 27.5106 90.5799 94.9533 55.5017 115.271C41.0556 123.634 34.026 136.433 34.0226 153.068C34 221.566 34.0226 290.063 34 358.563C34.0035 366.764 35.7205 374.03 39.1875 380.294C42.7517 386.736 48.1615 392.122 55.4826 396.36C63.5191 401.014 75.8976 408.144 90.4809 416.533L415.293 91.7207C369.845 65.5506 324.385 39.4013 278.967 13.1773Z" fill="#7F8B99"/>
<path fill-rule="evenodd" clip-rule="evenodd" d="M302.153 224.695L371.318 225.183C371.318 196.365 342.148 125.792 258.517 125.792C205.234 125.792 133.603 159.667 133.603 257.059C133.603 354.45 203.823 386.209 258.517 386.209C347.089 386.209 368.257 324.92 368.257 290.285L302.273 286.512C302.273 286.512 304.038 326.573 258.165 326.573C215.821 326.573 208.755 274.702 208.755 257.059C208.755 230.242 218.292 187.191 258.165 187.191C298.04 187.191 302.153 224.695 302.153 224.695Z" fill="white"/>
</svg>
